<svg width="35" height="36" viewBox="0 0 35 36" fill="none" xmlns="http://www.w3.org/2000/svg">
<path id="profile" fill-rule="evenodd" clip-rule="evenodd" d="M17.5 18C30.1818 18 36.3045 23.6669 34.7676 34.266C34.6236 35.2589 33.7083 36 32.6259 36H2.37406C1.29174 36 0.376379 35.2589 0.232412 34.266C-1.3045 23.6669 4.81816 18 17.5 18ZM17.5 22C8.06831 22 3.97224 25.1393 4.33994 32H30.6601C31.0278 25.1393 26.9317 22 17.5 22ZM17.5 0C22.2736 0 26.1434 3.58172 26.1434 8C26.1434 12.4183 22.2736 16 17.5 16C12.7264 16 8.8566 12.4183 8.8566 8C8.8566 3.58172 12.7264 0 17.5 0ZM17.5 4C15.1132 4 13.1783 5.79086 13.1783 8C13.1783 10.2091 15.1132 12 17.5 12C19.8868 12 21.8217 10.2091 21.8217 8C21.8217 5.79086 19.8868 4 17.5 4Z" fill="#F5F5F5"/>
</svg>
