<svg width="26" height="29" viewBox="0 0 26 29" fill="none" xmlns="http://www.w3.org/2000/svg">
<path id="Union" fill-rule="evenodd" clip-rule="evenodd" d="M12.6316 14.1474C21.7854 14.1474 26.2048 18.6014 25.0954 26.9319C24.9915 27.7122 24.3308 28.2947 23.5496 28.2947H1.71361C0.932387 28.2947 0.271672 27.7122 0.167756 26.9319C-0.941594 18.6014 3.47777 14.1474 12.6316 14.1474ZM12.6316 17.2912C5.82374 17.2912 2.86718 19.7586 3.13259 25.1509H22.1306C22.396 19.7586 19.4394 17.2912 12.6316 17.2912ZM12.6316 0C16.0772 0 18.8704 2.81511 18.8704 6.28772C18.8704 9.76033 16.0772 12.5754 12.6316 12.5754C9.18596 12.5754 6.39274 9.76033 6.39274 6.28772C6.39274 2.81511 9.18596 0 12.6316 0ZM12.6316 3.14386C10.9088 3.14386 9.51216 4.55141 9.51216 6.28772C9.51216 8.02403 10.9088 9.43158 12.6316 9.43158C14.3544 9.43158 15.751 8.02403 15.751 6.28772C15.751 4.55141 14.3544 3.14386 12.6316 3.14386Z" fill="black"/>
</svg>
