<svg width="39" height="40" viewBox="0 0 39 40" fill="none" xmlns="http://www.w3.org/2000/svg">
<path id="Vector" d="M37 38L28.5554 29.3141M28.5554 29.3141C29.9999 27.8283 31.1457 26.0645 31.9274 24.1233C32.7092 22.182 33.1116 20.1014 33.1116 18.0002C33.1116 15.899 32.7092 13.8184 31.9274 11.8772C31.1457 9.93597 29.9999 8.17212 28.5554 6.68636C27.1109 5.2006 25.396 4.02203 23.5087 3.21794C21.6214 2.41386 19.5986 2 17.5558 2C15.513 2 13.4902 2.41386 11.6028 3.21794C9.71553 4.02203 8.00067 5.2006 6.55618 6.68636C3.63891 9.68698 2 13.7567 2 18.0002C2 22.2438 3.63891 26.3135 6.55618 29.3141C9.47346 32.3147 13.4301 34.0005 17.5558 34.0005C21.6814 34.0005 25.6381 32.3147 28.5554 29.3141Z" stroke="#F5F5F5" stroke-width="4" stroke-linecap="round" stroke-linejoin="round"/>
</svg>
