<svg width="29" height="30" viewBox="0 0 29 30" fill="none" xmlns="http://www.w3.org/2000/svg">
<path id="Vector" d="M28 29L21.4856 22.2443M21.4856 22.2443C22.5999 21.0887 23.4838 19.7168 24.0869 18.207C24.6899 16.6971 25.0003 15.0789 25.0003 13.4446C25.0003 11.8104 24.69 10.1921 24.0869 8.68227C23.4838 7.17242 22.5999 5.80054 21.4856 4.64495C20.3713 3.48936 19.0484 2.57269 17.5924 1.94729C16.1365 1.32189 14.5761 1 13.0002 1C11.4243 1 9.86383 1.32189 8.4079 1.94729C6.95198 2.57269 5.62909 3.48936 4.51477 4.64495C2.2643 6.97876 1 10.1441 1 13.4446C1 16.7451 2.2643 19.9105 4.51477 22.2443C6.76524 24.5781 9.81753 25.8892 13.0002 25.8892C16.1828 25.8892 19.2351 24.5781 21.4856 22.2443Z" stroke="black" stroke-width="1.5" stroke-linecap="round" stroke-linejoin="round"/>
</svg>
